<?xml version="1.0" encoding="utf-8"?>
<!-- Generator: Adobe Illustrator 21.0.2, SVG Export Plug-In . SVG Version: 6.00 Build 0)  -->
<svg version="1.1" id="Layer_1" xmlns="http://www.w3.org/2000/svg" xmlns:xlink="http://www.w3.org/1999/xlink" x="0px" y="0px"
	 width="112.9px" height="112.9px" viewBox="0 0 112.9 112.9" style="enable-background:new 0 0 112.9 112.9;" xml:space="preserve"
	>
<style type="text/css">
	.st0{fill:#281616;}
	.st1{opacity:0.5;fill:#C9C9C9;}
	.st2{fill:#FFFFFF;}
	.st3{fill:none;stroke:#FFFFFF;stroke-width:5;stroke-miterlimit:10;}
	.st4{opacity:0.5;}
	.st5{fill:#C9C9C9;}
	.st6{fill:#8CB3C2;}
	.st7{fill:#7CCBE8;}
	.st8{fill:none;stroke:#7CCBE8;stroke-width:5;stroke-miterlimit:10;}
</style>
<g>
	<g class="st4">
		<circle class="st5" cx="56.5" cy="56.5" r="49.9"/>
	</g>
	<g>
		<path class="st2" d="M56.4,112.8c-31.1,0-56.4-25.3-56.4-56.4C0.1,25.4,25.4,0,56.4,0c31.1,0,56.4,25.3,56.4,56.4
			C112.9,87.5,87.5,112.8,56.4,112.8z M56.4,5C28.1,5,5.1,28.1,5.1,56.5c0,28.3,23.1,51.4,51.4,51.4s51.4-23.1,51.4-51.4
			C107.9,28.1,84.8,5,56.4,5z"/>
	</g>
	<g>
		<g>
			<path class="st2" d="M58.4,58.8h-1.8h-0.3h-1.8c-3,0-5.4,2.2-5.4,4.9l1.6,20c0,2.7,2.4,4.9,5.4,4.9h0.2h0.3h0.2
				c3,0,5.4-2.2,5.4-4.9l1.6-20C63.8,61,61.3,58.8,58.4,58.8z"/>
		</g>
		<g>
			<circle class="st2" cx="56.5" cy="49.8" r="6.3"/>
		</g>
		<g>
			<path class="st2" d="M71.2,63.9l-3.7-3.3c2.4-2.7,3.7-6.2,3.7-9.8c0-8.1-6.6-14.7-14.7-14.7s-14.7,6.6-14.7,14.7
				c0,3.6,1.3,7.1,3.7,9.8l-3.7,3.3c-3.2-3.6-5-8.3-5-13.1c0-10.9,8.9-19.7,19.7-19.7s19.7,8.9,19.7,19.7
				C76.2,55.6,74.4,60.3,71.2,63.9z"/>
		</g>
		<g>
			<path class="st2" d="M77.8,77l-3.4-3.7c5.5-5.1,8.7-12.2,8.7-19.7c0-14.7-12-26.7-26.7-26.7c-14.7,0-26.7,12-26.7,26.7
				c0,7.5,3.2,14.7,8.7,19.7L35.1,77c-6.6-6-10.3-14.5-10.3-23.4c0-17.5,14.2-31.7,31.7-31.7s31.7,14.2,31.7,31.7
				C88.2,62.5,84.4,71,77.8,77z"/>
		</g>
	</g>
</g>
</svg>
