<?xml version="1.0" encoding="utf-8"?>
<!-- Generator: Adobe Illustrator 21.0.2, SVG Export Plug-In . SVG Version: 6.00 Build 0)  -->
<svg version="1.1" id="Layer_1" xmlns="http://www.w3.org/2000/svg" xmlns:xlink="http://www.w3.org/1999/xlink" x="0px" y="0px"
	 width="112.9px" height="112.9px" viewBox="0 0 112.9 112.9" style="enable-background:new 0 0 112.9 112.9;" xml:space="preserve"
	>
<style type="text/css">
	.st0{fill:#281616;}
	.st1{opacity:0.5;fill:#C9C9C9;}
	.st2{fill:#FFFFFF;}
	.st3{fill:none;stroke:#FFFFFF;stroke-width:5;stroke-miterlimit:10;}
	.st4{opacity:0.5;}
	.st5{fill:#C9C9C9;}
	.st6{fill:#8CB3C2;}
	.st7{fill:#7CCBE8;}
	.st8{fill:none;stroke:#7CCBE8;stroke-width:5;stroke-miterlimit:10;}
</style>
<g>
	<g>
		<circle class="st7" cx="56.4" cy="59.5" r="10"/>
	</g>
	<g>
		<path class="st7" d="M83.6,40.5h-7.2h-0.6c-1.3,0-2.5-0.7-3.1-1.9c-0.2-0.4-0.4-0.9-0.6-1.4c-1.1-2.7-1.9-6.2-3.4-6.5h-9.1h-6.3
			h-9.1c-1.5,0.3-2.3,3.7-3.4,6.5c-0.2,0.6-0.4,1-0.6,1.4c-0.6,1.2-1.8,1.9-3.1,1.9h0h-7.8c-3.2,0-5.8,2.6-5.8,5.8v30.1
			c0,3.2,2.6,5.8,5.8,5.8h54.3c3.2,0,5.8-2.6,5.8-5.8V46.3C89.4,43.1,86.8,40.5,83.6,40.5z M56.5,76.1c-9.1,0-16.6-7.4-16.6-16.6
			c0-9.1,7.4-16.6,16.6-16.6S73,50.4,73,59.5C73,68.7,65.6,76.1,56.5,76.1z M80.4,51.3c-1.2,0-2.1-1-2.1-2.1s1-2.1,2.1-2.1
			c1.2,0,2.1,1,2.1,2.1S81.6,51.3,80.4,51.3z"/>
	</g>
</g>
</svg>
