<?xml version="1.0" encoding="utf-8"?>
<!-- Generator: Adobe Illustrator 21.0.2, SVG Export Plug-In . SVG Version: 6.00 Build 0)  -->
<svg version="1.1" id="Layer_1" xmlns="http://www.w3.org/2000/svg" xmlns:xlink="http://www.w3.org/1999/xlink" x="0px" y="0px"
	 width="112.9px" height="112.9px" viewBox="0 0 112.9 112.9" style="enable-background:new 0 0 112.9 112.9;" xml:space="preserve"
	>
<style type="text/css">
	.st0{fill:#281616;}
	.st1{opacity:0.5;fill:#C9C9C9;}
	.st2{fill:#FFFFFF;}
	.st3{fill:none;stroke:#FFFFFF;stroke-width:5;stroke-miterlimit:10;}
	.st4{opacity:0.5;}
	.st5{fill:#C9C9C9;}
	.st6{fill:#8CB3C2;}
	.st7{fill:#7CCBE8;}
	.st8{fill:none;stroke:#7CCBE8;stroke-width:5;stroke-miterlimit:10;}
</style>
<g>
	<g class="st4">
		<circle class="st5" cx="56.5" cy="56.5" r="49.9"/>
	</g>
	<g>
		<polygon class="st2" points="79.9,56.5 39.5,33.3 39.5,79.9 		"/>
	</g>
	<g>
		<path class="st2" d="M56.5,112.8C25.4,112.8,0,87.5,0,56.5C0,25.4,25.4,0,56.5,0s56.4,25.3,56.4,56.4
			C112.9,87.5,87.5,112.8,56.5,112.8z M56.5,5C28.1,5,5,28.1,5,56.5c0,28.3,23.1,51.4,51.4,51.4s51.4-23.1,51.4-51.4
			C107.9,28.1,84.8,5,56.5,5z"/>
	</g>
</g>
</svg>
