<?xml version="1.0" encoding="utf-8"?>
<!-- Generator: Adobe Illustrator 15.0.0, SVG Export Plug-In . SVG Version: 6.00 Build 0)  -->
<!DOCTYPE svg PUBLIC "-//W3C//DTD SVG 1.1//EN" "http://www.w3.org/Graphics/SVG/1.1/DTD/svg11.dtd">
<svg version="1.1" id="Layer_1" xmlns="http://www.w3.org/2000/svg" xmlns:xlink="http://www.w3.org/1999/xlink" x="0px" y="0px"
	 width="500px" height="500px" viewBox="0 0 500 500" enable-background="new 0 0 500 500" xml:space="preserve">
<g id="XMLID_2_">
	<g>
		<path fill="#FFFFFF" d="M463,228c0,8,0,16,0,24c-6.15,66.18-32.46,112.21-71,146c-9.8-5.87-17.57-13.76-28-19
			c38.21-35.7,69.52-79.3,65-152c-5.78-93.02-82.46-166-179-166c-51.07,0-94.53,20.44-126,51c-31.91,30.99-56.82,79.51-53,141
			c3.57,57.52,30.51,94.54,65,125c-8.69,6.98-18.66,12.67-27,20c-39.95-32.721-65.44-79.891-72-146c0-7.67,0-15.33,0-23
			C52.82,108.16,121.02,39.69,245,27c3.33,0,6.67,0,10,0C378.76,39.58,446.7,107.97,463,228z"/>
		<path fill="#FFFFFF" d="M242,91c78.58-5.78,145.39,59.8,141,139c-1.91,34.55-14.13,56.84-31,80c-10.18-6.16-17.94-14.73-29-20
			c13.5-19.29,25.17-37.38,25-66c-0.33-56.26-45.85-102.98-110-97c-74.98,6.99-113.37,105.05-61,163c-11.06,5.27-18.82,13.84-29,20
			c-18.71-26.1-33.15-53.189-31-92C120.75,150.26,172.26,96.13,242,91z"/>
		<path fill="#FFFFFF" d="M298,298c3.38,9.83,1.2,27.37,0,42c-1,12.189-1.891,24.66-3,37c-3.59,39.94-0.73,92.26-38,96
			c-5,0-10,0-15,0c-38.01-7.05-33.14-50.41-37-97c-2.27-27.43-7.48-56.859-5-74C205.41,264.609,286.721,265.17,298,298z"/>
		<path fill="#FFFFFF" d="M246,162c58.33-5.42,69.6,73.96,27,95c-27.74,13.7-60.69-2.77-70-26C189.58,197.5,213.45,165.03,246,162z"
			/>
	</g>
</g>
<path fill="#FFFFFF" d="M108,398"/>
</svg>
